<svg id="Layer_1" data-name="Layer 1" xmlns="http://www.w3.org/2000/svg" viewBox="0 0 158.35 158.35"><defs><style>.cls-1{fill:#e66db4;}.cls-2{fill:#eab4d8;}.cls-3{fill:#fff;}</style></defs><title>database</title><circle class="cls-1" cx="79.18" cy="79.18" r="79.18"/><path class="cls-2" d="M83.66,164.57a79.18,79.18,0,0,1,0-158.35" transform="translate(-4.28 -6.22)"/><path class="cls-3" d="M36.31,98.93H90.58a27.74,27.74,0,0,1-16.17-21H36.31c-4.33,0-7.87,4.73-7.87,10.51S32,98.93,36.31,98.93Z" transform="translate(-4.28 -6.22)"/><path class="cls-3" d="M36.31,71.31H74.14a27.72,27.72,0,0,1,12.46-21H36.31C32,50.29,28.44,55,28.44,60.8S32,71.31,36.31,71.31Z" transform="translate(-4.28 -6.22)"/><path class="cls-3" d="M106.9,105.54H36.31c-4.33,0-7.87,4.73-7.87,10.51s3.54,10.51,7.87,10.51H106.9c4.33,0,7.87-4.73,7.87-10.51S111.22,105.54,106.9,105.54Z" transform="translate(-4.28 -6.22)"/><path class="cls-3" d="M131.36,97.18l-9.84-9.8A21.34,21.34,0,0,0,89.26,59.63a21.34,21.34,0,0,0,27.91,32.13l9.84,9.8ZM93.72,85.41a15.12,15.12,0,1,1,21.42,0A15.1,15.1,0,0,1,93.72,85.41Z" transform="translate(-4.28 -6.22)"/></svg>