<svg id="Lager_1" data-name="Lager 1" xmlns="http://www.w3.org/2000/svg" viewBox="0 0 120.51 137.21"><defs><style>.cls-1{font-size:49px;font-family:Righteous-Regular, Righteous;}.cls-1,.cls-2{fill:#e86ed0;}</style></defs><title>short_url</title><text class="cls-1" transform="translate(0 124.63)">WWW</text><path id="scissor" class="cls-2" d="M308.86,298.48a21.69,21.69,0,0,0-2.63,1.95c-4.39,3.73-5.91,10-2.54,13.47a7.5,7.5,0,0,0,3.36,2.07,12.49,12.49,0,0,0,3.11.59s-.54.91-.73,1.3a27.26,27.26,0,0,1-2.24,3.35c-2.76,3.76-5.85,8.25-8.54,12.75-11.59.21-23.19.43-34.77.6-5,.39-11.69,2.5-15,8.69l44.66.05L272,382a17.93,17.93,0,0,0,15-9c4.1-7.1,11.52-19.94,17.23-29.84A118.6,118.6,0,0,0,319.12,342a28.07,28.07,0,0,1,4-.32c.57,0,.95,0,1.65.08a12.16,12.16,0,0,0-.62,1.17c-.1.27-.29.61-.46,1.08a7.52,7.52,0,0,0,.09,4.6c1.23,4.7,7.58,6.33,13,4.3a.09.09,0,0,0,.05,0c5.42-1.73,10.31-7,9.43-12l0,0c-.59-5.07-6.24-8.06-12.06-6.58l-.06,0c-6.6,1.24-13.9,4.27-23.41,1.65l-3.19-.86.87-3.59c2.31-9.57,8.53-14.52,12.81-19.68l.06,0c4.14-4.38,4.29-10.82.1-13.78-3.19-2.63-8.44-2-12.49.48Zm2.54,3.09A6.25,6.25,0,0,1,317,301l0,0c2.17.85,2.89,2.89,2.49,5.11a8.16,8.16,0,0,1-4.15,5.64l-.06,0a5.68,5.68,0,0,1-6.42-.06,4.92,4.92,0,0,1-1.54-6,8.73,8.73,0,0,1,4.09-4.27Zm20.22,37.62a8.31,8.31,0,0,1,6.79-.55c2,.76,3.39,2.28,3.09,4.52l0,.07a6.13,6.13,0,0,1-3.09,4.62,9.08,9.08,0,0,1-5.81,1.49,4.94,4.94,0,0,1-4.45-4.25,5.68,5.68,0,0,1,3.07-5.64l.43-.26Z" transform="translate(-237.38 -296.32)"/></svg>