<?xml version="1.0" encoding="utf-8"?>
<!-- Generator: Adobe Illustrator 24.0.0, SVG Export Plug-In . SVG Version: 6.00 Build 0)  -->
<svg version="1.1" id="Lager_1" xmlns="http://www.w3.org/2000/svg" xmlns:xlink="http://www.w3.org/1999/xlink" x="0px" y="0px"
	 viewBox="0 0 35.9 35.9" style="enable-background:new 0 0 35.9 35.9;" xml:space="preserve">
<style type="text/css">
	.st0{fill:none;stroke:#E86ED0;stroke-width:3.4773;stroke-miterlimit:4;}
	.st1{fill:#E86ED0;}
</style>
<ellipse transform="matrix(0.866 -0.5 0.5 0.866 -6.5756 11.3701)" class="st0" cx="17.9" cy="18" rx="16.2" ry="16.2"/>
<path class="st1" d="M16.7,9.8h2.4c0.1,0,0.2,0.1,0.2,0.2v16c0,0.1-0.1,0.2-0.2,0.2h-2.4c-0.1,0-0.2-0.1-0.2-0.2V10
	C16.5,9.9,16.6,9.8,16.7,9.8z"/>
<path class="st1" d="M26.1,16.8v2.4c0,0.1-0.1,0.2-0.2,0.2h-16c-0.1,0-0.2-0.1-0.2-0.2v-2.4c0-0.1,0.1-0.2,0.2-0.2h16
	C26,16.6,26.1,16.7,26.1,16.8z"/>
</svg>
