<svg id="Lager_1" data-name="Lager 1" xmlns="http://www.w3.org/2000/svg" viewBox="0 0 352.8 336.74"><defs><style>.cls-1{fill:#e66db4;}</style></defs><title>campaign</title><path class="cls-1" d="M322.69,503.32c-4,0-7.05,3-8.49,4.74a26.53,26.53,0,0,0,0,31.2c1.44,1.77,4.46,4.74,8.49,4.74s7.05-3,8.5-4.74a26.55,26.55,0,0,0,0-31.2c-1.44-1.77-4.46-4.74-8.5-4.74h0Zm0,0" transform="translate(-103 -312)"/><path class="cls-1" d="M236.1,457.42c4,0,7.06-3,8.5-4.74a26.54,26.54,0,0,0,0-31.2c-1.44-1.77-4.46-4.74-8.5-4.74s-7.05,3-8.49,4.74a26.53,26.53,0,0,0,0,31.2c1.44,1.77,4.46,4.74,8.49,4.74h0Zm0,0" transform="translate(-103 -312)"/><path class="cls-1" d="M451.23,471.2L408,438.57l15.76-51.8A11.49,11.49,0,0,0,413,371.93l-54.14-1-17.65-51.2a11.5,11.5,0,0,0-17.45-5.67l-44.38,31.05L235,314.07a11.49,11.49,0,0,0-17.45,5.67l-17.65,51.2-54.14,1A11.49,11.49,0,0,0,135,386.77l15.76,51.8L107.56,471.2a11.49,11.49,0,0,0,0,18.34l43.19,32.64L135,574a11.49,11.49,0,0,0,10.79,14.84l54.14,1L217.57,641A11.49,11.49,0,0,0,235,646.67l44.38-31.05,44.38,31.05A11.49,11.49,0,0,0,341.23,641l17.65-51.2,54.14-1A11.49,11.49,0,0,0,423.8,574L408,522.18l43.19-32.64a11.49,11.49,0,0,0,0-18.34h0ZM236.1,400.78c16.31,0,29.52,16.25,29.52,36.3s-13.22,36.3-29.52,36.3-29.52-16.25-29.52-36.3,13.22-36.3,29.52-36.3h0Zm-1.87,159.34a9.87,9.87,0,0,1-8,4.1,9.84,9.84,0,0,1-8-15.58l106.32-148a9.87,9.87,0,0,1,8-4.1,9.84,9.84,0,0,1,8,15.58Zm88.46-.16c-16.3,0-29.52-16.25-29.52-36.3s13.21-36.3,29.52-36.3,29.52,16.25,29.52,36.3S339,560,322.69,560h0Zm0,0" transform="translate(-103 -312)"/></svg>