<svg id="Text" xmlns="http://www.w3.org/2000/svg" viewBox="0 0 868.14 165.31"><defs><style>.cls-1{fill:#e86ed0;}.cls-2{fill:#edb5f5;}.cls-3{fill:#b1e8ed;}.cls-4{fill:#e6f8f9;}</style></defs><title>logo_nu</title><g id="_.nu" data-name=".nu"><g id="Shadow"><path d="M891.25,344.43a17,17,0,0,1-5.4-.81,10.26,10.26,0,0,1-4.57-3,13.05,13.05,0,0,1-2.56-5.24,28.24,28.24,0,0,1-.72-7.2V304h15v22.39c0,2.95.06,4.05.24,4.39,0,.09.25.22,1,.22a3.33,3.33,0,0,0,2.23-.69c.61-.54,1.58-1.18,1.58-1.94V304h14v26.59a48.39,48.39,0,0,0,.21,5,27.8,27.8,0,0,0,.69,4l.9,3.39H901.43l-.69-2a19.11,19.11,0,0,1-1.59,1.22A15,15,0,0,1,891.25,344.43Z" transform="translate(-45.65 -197)"/><path d="M862,343V321.92c0-2.91-.27-3.94-.43-4.18s-.55-.44-1.32-.44a4.18,4.18,0,0,0-2.55.73c-.6.5-.7,1.1-1.7,1.81V343H843V304h11.44l.4,2.14c.31-.22.62-.23.95-.43a14.72,14.72,0,0,1,8-1.93,16.25,16.25,0,0,1,5.29.86,10.42,10.42,0,0,1,4.48,3,12.91,12.91,0,0,1,2.65,5.33,29.22,29.22,0,0,1,.79,7.14V343Z" transform="translate(-45.65 -197)"/><path d="M832.13,344.24a8.27,8.27,0,0,1-5.84-2.2,7.8,7.8,0,0,1-2.35-5.8,7.66,7.66,0,0,1,2.38-5.79,8.22,8.22,0,0,1,5.81-2.14,8.47,8.47,0,0,1,6,2.13,8.28,8.28,0,0,1,0,11.6A8.31,8.31,0,0,1,832.13,344.24Z" transform="translate(-45.65 -197)"/></g><g id="Border"><path d="M831,340.57a8.22,8.22,0,0,1-5.84-2.19,8.28,8.28,0,0,1,0-11.6,8.26,8.26,0,0,1,5.82-2.13,8.43,8.43,0,0,1,5.94,2.13,7.7,7.7,0,0,1,2.38,5.8,7.8,7.8,0,0,1-2.35,5.8A8.32,8.32,0,0,1,831,340.57Z" transform="translate(-45.65 -197)"/><path d="M861,340V318.26c0-2.91-.32-3.94-.48-4.19s-.58-.43-1.35-.43a4.12,4.12,0,0,0-2.51.72c-.6.51-.66,1.1-1.66,1.82V340H842V301h11.34l.39,1.81c.31-.22.63-.4.95-.6a14.73,14.73,0,0,1,8-2,16.37,16.37,0,0,1,5.3.82,10.5,10.5,0,0,1,4.48,3,12.91,12.91,0,0,1,2.69,5.32,28.42,28.42,0,0,1,.85,7.13V340Z" transform="translate(-45.65 -197)"/><path d="M890.14,340.77a16.9,16.9,0,0,1-5.39-.81,10.17,10.17,0,0,1-4.58-3,13,13,0,0,1-2.5-5.23,28.47,28.47,0,0,1-.67-7.2V301h14v21.72c0,3,.51,4.06.69,4.4a2,2,0,0,0,1.17.22,2.41,2.41,0,0,0,1.9-.69,3,3,0,0,0,1.24-1.94V301h15v25.93c0,1.68,0,3.36.15,5a33.16,33.16,0,0,0,.67,4.36l.87,3.72H900.33l-.7-2.32a16.27,16.27,0,0,1-1.59,1.06A15,15,0,0,1,890.14,340.77Z" transform="translate(-45.65 -197)"/></g><g id="Nyans"><path class="cls-1" d="M890.07,306.9v18.66a12.9,12.9,0,0,0,.95,5.78c.63,1.18,1.87,1.77,3.71,1.77a5.83,5.83,0,0,0,4-1.44,9,9,0,0,0,2.4-3.55V306.9h8.54v22.86a51.07,51.07,0,0,0,.26,5.29,32.43,32.43,0,0,0,.79,4.69h-6.44l-1.51-4.86h-.26a12.19,12.19,0,0,1-4.21,4.14,12,12,0,0,1-6.37,1.64,14.28,14.28,0,0,1-4.46-.65,7.34,7.34,0,0,1-3.29-2.17,10.27,10.27,0,0,1-2-4.07,25.3,25.3,0,0,1-.69-6.44V306.9Z" transform="translate(-45.65 -197)"/><path class="cls-1" d="M866.16,339.74V321.09c0-2.67-.39-4.6-1.15-5.78a4.31,4.31,0,0,0-3.91-1.77A6.18,6.18,0,0,0,857,315a7.86,7.86,0,0,0-2.39,3.51v21.28h-8.54V306.9h6.76l1,4.34h.26a14.14,14.14,0,0,1,4-3.68,11.88,11.88,0,0,1,6.44-1.58,13.22,13.22,0,0,1,4.33.66,7.41,7.41,0,0,1,3.22,2.17,9.87,9.87,0,0,1,2,4.1,26.48,26.48,0,0,1,.66,6.41v20.42Z" transform="translate(-45.65 -197)"/><path class="cls-1" d="M827.6,335.41a4.74,4.74,0,0,1,1.45-3.65,5.38,5.38,0,0,1,3.81-1.34,5.6,5.6,0,0,1,3.94,1.34,4.77,4.77,0,0,1,1.44,3.65,4.87,4.87,0,0,1-1.44,3.68,5.49,5.49,0,0,1-3.94,1.38,5.28,5.28,0,0,1-3.81-1.38A4.84,4.84,0,0,1,827.6,335.41Z" transform="translate(-45.65 -197)"/></g><g id="Main_text" data-name="Main text"><path class="cls-2" d="M888.24,304.07v18.66a12.9,12.9,0,0,0,1,5.78c.63,1.18,1.87,1.77,3.71,1.77a5.79,5.79,0,0,0,4-1.45,8.92,8.92,0,0,0,2.4-3.54V304.07h8.54v22.86a51.07,51.07,0,0,0,.26,5.29,32.43,32.43,0,0,0,.79,4.69h-6.44L901,332.05h-.26a12.19,12.19,0,0,1-4.21,4.14,12,12,0,0,1-6.37,1.64,14.39,14.39,0,0,1-4.47-.65,7.37,7.37,0,0,1-3.28-2.17,10.14,10.14,0,0,1-2-4.07,25.3,25.3,0,0,1-.69-6.44V304.07Z" transform="translate(-45.65 -197)"/><path class="cls-2" d="M864.33,336.91V318.26c0-2.67-.39-4.6-1.15-5.78a4.31,4.31,0,0,0-3.91-1.78,6.19,6.19,0,0,0-4.11,1.42,7.86,7.86,0,0,0-2.39,3.51v21.28h-8.54V304.07H851l1,4.34h.26a14.14,14.14,0,0,1,4-3.68,11.87,11.87,0,0,1,6.43-1.58,13.24,13.24,0,0,1,4.34.66,7.41,7.41,0,0,1,3.22,2.17,9.87,9.87,0,0,1,2,4.1,26.44,26.44,0,0,1,.66,6.4v20.43Z" transform="translate(-45.65 -197)"/><path class="cls-2" d="M825.77,332.58a4.74,4.74,0,0,1,1.45-3.65,5.38,5.38,0,0,1,3.81-1.34,5.6,5.6,0,0,1,3.94,1.34,4.77,4.77,0,0,1,1.44,3.65,4.87,4.87,0,0,1-1.44,3.68,5.49,5.49,0,0,1-3.94,1.38,5.28,5.28,0,0,1-3.81-1.38A4.84,4.84,0,0,1,825.77,332.58Z" transform="translate(-45.65 -197)"/></g></g><g id="Bilen"><g id="Shadow-2" data-name="Shadow"><path d="M555,361.7c-5.83,0-14.89-.74-27.7-2.26L517,358.07V260h39v23.08a51,51,0,0,1,8.79-.94c14.15,0,31,6.71,31,38.67,0,15-3,25.32-9.08,31.54S570.16,361.7,555,361.7Zm1-37a28.84,28.84,0,0,0,.16-3.26,36.85,36.85,0,0,0-.16-3.72Z" transform="translate(-45.65 -197)"/><rect x="546.35" y="87" width="39" height="76"/><rect x="546.35" y="63" width="39" height="30"/><rect x="582.35" y="63" width="40" height="100"/><path d="M700.86,361.7c-12.84,0-22.42-3.18-28.48-9.45s-9.07-16-9.07-29.15,3.21-23.22,9.55-30.21,16.37-10.75,29.44-10.75c12.86,0,22.8,2.93,29.39,8.71,6.78,5.95,10.31,15,10.31,26.93V318l-2,18h-.11l.72,20.9-4.07.89A167.91,167.91,0,0,1,700.86,361.7Z" transform="translate(-45.65 -197)"/><path d="M737,360V284h39.94a25.67,25.67,0,0,1,9.15-1.86c11,0,18.69,3.18,23.49,9.7,4.38,6,6.42,15.51,6.42,30V360Z" transform="translate(-45.65 -197)"/></g><g id="Border-2" data-name="Border"><path d="M546,337.7c-5.83,0-14.89-.74-27.7-2.26L508,334.07V236h39v23.08a51,51,0,0,1,8.79-.94c14.15,0,31,6.71,31,38.67,0,15-3,25.32-9.08,31.54S561.16,337.7,546,337.7Zm1-37a28.84,28.84,0,0,0,.16-3.26,36.85,36.85,0,0,0-.16-3.72Z" transform="translate(-45.65 -197)"/><rect x="537.35" y="63" width="39" height="76"/><rect x="537.35" y="39" width="39" height="30"/><rect x="573.35" y="39" width="40" height="100"/><path d="M691.86,337.7c-12.84,0-22.42-3.18-28.48-9.45s-9.07-16-9.07-29.15,3.21-23.22,9.55-30.21,16.37-10.75,29.44-10.75c12.86,0,22.8,2.93,29.39,8.71,6.78,5.95,10.31,15,10.31,26.93V294l-2,18h-.11l.72,20.9-4.07.89A167.91,167.91,0,0,1,691.86,337.7Z" transform="translate(-45.65 -197)"/><path d="M728,336V260h39.94a25.67,25.67,0,0,1,9.15-1.86c11,0,18.69,3.18,23.49,9.7,4.38,6,6.42,15.51,6.42,30V336Z" transform="translate(-45.65 -197)"/></g><g id="Nyans-2" data-name="Nyans"><path class="cls-3" d="M559.79,268.14c-3.32,0-7.79.7-13.79,2.1V246H517v88.69l5.89.79q18.74,2.22,27.11,2.22,20.43,0,28.16-7.86c5.16-5.24,7.65-14.58,7.65-28C585.81,279.37,577.08,268.14,559.79,268.14ZM550.36,314a19.92,19.92,0,0,1-4.36-.39V292.77l4.36-.92a4.89,4.89,0,0,1,4.53,2.23c.87,1.49,1.27,4.28,1.27,8.38C556.16,310.15,554.2,314,550.36,314Z" transform="translate(-45.65 -197)"/><rect class="cls-3" x="546.35" y="73" width="29" height="66"/><rect class="cls-3" x="546.35" y="49" width="29" height="20"/><rect class="cls-3" x="582.35" y="49" width="30" height="90"/><path class="cls-3" d="M723.31,275.61q-8.52-7.47-26-7.47t-25.74,9.11q-8.25,9.11-8.25,26.85T671,329.78q7.66,7.92,24.89,7.92a161.71,161.71,0,0,0,34.65-3.8l-.65-19-5.11.39c-8.74.53-17.47,1-26.2,1-3.85,0-5.81-1.34-5.9-4.34h37.86l1.31-13.22C731.82,288.48,729,280.59,723.31,275.61ZM692.52,296c.09-3,.48-4.56,1.18-5.61a4.29,4.29,0,0,1,3.8-1.69,4.48,4.48,0,0,1,3.86,1.75c.75,1.05,1.12,2.55,1.12,5.55Z" transform="translate(-45.65 -197)"/><path class="cls-3" d="M800.55,275.81c-3.76-5.11-10-7.67-19.46-7.67-4.11,0-9.09,1.71-14.09,5.11V270H737v66h30V294.34l5.46-.92c3.14,0,4.54,3.8,4.54,11.4V336h29V302.86C806,289.93,804.3,280.91,800.55,275.81Z" transform="translate(-45.65 -197)"/></g><g id="Main_text-2" data-name="Main text"><path class="cls-4" d="M555.79,263.14c-3.32,0-7.79.7-13.79,2.1V241H513v88.69l5.89.79q18.74,2.22,27.11,2.22,20.43,0,28.16-7.86c5.16-5.24,7.65-14.58,7.65-28C581.81,274.37,573.08,263.14,555.79,263.14ZM546.36,309a19.92,19.92,0,0,1-4.36-.39V287.77l4.36-.92a4.89,4.89,0,0,1,4.53,2.23c.87,1.49,1.27,4.28,1.27,8.38C552.16,305.15,550.2,309,546.36,309Z" transform="translate(-45.65 -197)"/><rect class="cls-4" x="542.35" y="68" width="29" height="66"/><rect class="cls-4" x="542.35" y="44" width="29" height="20"/><rect class="cls-4" x="578.35" y="44" width="30" height="90"/><path class="cls-4" d="M719.31,270.61q-8.52-7.47-26-7.47t-25.74,9.11q-8.25,9.11-8.25,26.85T667,324.78q7.66,7.92,24.89,7.92a161.71,161.71,0,0,0,34.65-3.8l-.65-19-5.11.39c-8.74.53-17.47,1-26.2,1-3.85,0-5.81-1.34-5.9-4.34h37.86l1.31-13.22C727.82,283.48,725,275.59,719.31,270.61ZM688.52,291c.09-3,.48-4.56,1.18-5.61a4.29,4.29,0,0,1,3.8-1.69,4.48,4.48,0,0,1,3.86,1.75c.75,1.05,1.12,2.55,1.12,5.55Z" transform="translate(-45.65 -197)"/><path class="cls-4" d="M796.55,270.81c-3.76-5.11-10-7.67-19.46-7.67-4.11,0-9.09,1.71-14.09,5.11V265H733v66h30V289.34l5.46-.92c3.14,0,4.54,3.8,4.54,11.4V331h29V297.86C802,284.93,800.3,275.91,796.55,270.81Z" transform="translate(-45.65 -197)"/></g></g><g id="Godis"><g id="Shadow-3" data-name="Shadow"><path d="M113,280l.22,37.27c-3-.83-3.82-2.42-4.15-3.06-1.24-2.45-2.71-7.54-2.71-17.94,0-8.93.36-15.08,1.09-18.29a6.08,6.08,0,0,1,.84-2.27,14.55,14.55,0,0,1,3.78-1.61c.78-.23,3.58-.77,12.59-.77,7,0,19.1.77,35.89,2.29l5.45.5V235.55L155.31,233c-4.64-1-10.86-2-18.5-3a161.71,161.71,0,0,0-21.11-1.56c-21.63,0-37.4,5.14-46.89,15.29s-14.16,27-14.16,51.46c0,11.47.85,21.11,2.52,28.67a51.87,51.87,0,0,0,9.57,20.85A39.17,39.17,0,0,0,86.35,357.9c7.75,2.46,17.15,3.7,28,3.7s27.65-1.81,48.51-5.22l4.19-.69V280Z" transform="translate(-45.65 -197)"/><path d="M256.08,263.62c-8.82-8.28-22-12.48-39.11-12.48s-30.29,4.2-39.1,12.48-13.41,21.77-13.41,39.86S169,335,177.88,343.26s22,12.38,39.09,12.38,30.29-4.16,39.09-12.38,13.43-21.69,13.43-39.78S265,272,256.08,263.62ZM218.19,313c-.12.24-.21.44-1.22.44s-1.1-.2-1.22-.44c-.25-.5-1.07-2.69-1.07-9.6s.82-9.09,1.07-9.6c.12-.24.22-.44,1.22-.44s1.1.2,1.22.44c.26.51,1.08,2.69,1.08,9.6S218.45,312.49,218.19,313Z" transform="translate(-45.65 -197)"/><path d="M319,221v30.83l-9.36-.83h-.18c-36.69,0-44.39,28.53-44.39,52.41,0,16.6,2.81,29.06,8.61,37.95,6.17,9.47,16.8,14.28,31.58,14.28a34.61,34.61,0,0,0,14.4-3.37l.07.73H369V221Zm0,92.35-.85.08c-1.32,0-1.47-.41-1.63-.81-.58-1.41-1.27-4.15-1.27-9.23s.64-7.95,1.17-9.32c.12-.32.27-.72,1.77-.72.22,0,.49,0,.81,0Z" transform="translate(-45.65 -197)"/><rect x="323.35" y="56" width="49" height="100"/><rect x="322.35" y="24" width="51" height="37"/><path d="M462.91,362.31A194.35,194.35,0,0,1,441,361.12a106.72,106.72,0,0,1-15.37-2.55l-8.41-2.26,1.21-36.38,7.8,1.07c-.59-.51-1.15-1-1.68-1.58-5.13-5.27-7.73-13.3-7.73-23.86,0-13.77,4.21-23.71,12.54-29.54,7.76-5.45,18.64-8.21,32.32-8.21s25.89,1.25,35.84,3.7l8.88,2L504.48,301l-6.1-.69c.41.37.81.74,1.2,1.13,5.28,5.36,7.84,13.75,7.84,25.67s-3.93,21.12-11.69,26.95C488.31,359.6,477.57,362.31,462.91,362.31Z" transform="translate(-45.65 -197)"/></g><g id="Border-3" data-name="Border"><path d="M104,256l.22,37.27c-3-.83-3.82-2.42-4.15-3.06-1.24-2.45-2.71-7.54-2.71-17.94,0-8.93.36-15.08,1.09-18.29a6.08,6.08,0,0,1,.84-2.27,14.55,14.55,0,0,1,3.78-1.61c.78-.23,3.58-.77,12.59-.77,7,0,19.1.77,35.89,2.29l5.45.5V211.55L146.31,209c-4.64-1-10.86-2-18.5-3a161.71,161.71,0,0,0-21.11-1.56c-21.63,0-37.4,5.14-46.89,15.29s-14.16,27-14.16,51.46c0,11.47.85,21.11,2.52,28.67a51.87,51.87,0,0,0,9.57,20.85A39.17,39.17,0,0,0,77.35,333.9c7.75,2.46,17.15,3.7,28,3.7s27.65-1.81,48.51-5.22l4.19-.69V256Z" transform="translate(-45.65 -197)"/><path d="M247.08,239.62c-8.82-8.28-22-12.48-39.11-12.48s-30.29,4.2-39.1,12.48-13.41,21.77-13.41,39.86S160,311,168.88,319.26s22,12.38,39.09,12.38,30.29-4.16,39.09-12.38,13.43-21.69,13.43-39.78S256,248,247.08,239.62ZM209.19,289c-.12.24-.21.44-1.22.44s-1.1-.2-1.22-.44c-.25-.5-1.07-2.69-1.07-9.6s.82-9.09,1.07-9.6c.12-.24.22-.44,1.22-.44s1.1.2,1.22.44c.26.51,1.08,2.69,1.08,9.6S209.45,288.49,209.19,289Z" transform="translate(-45.65 -197)"/><path d="M310,197v30.83l-9.36-.83h-.18c-36.69,0-44.39,28.53-44.39,52.41,0,16.6,2.81,29.06,8.61,37.95,6.17,9.47,16.8,14.28,31.58,14.28a34.61,34.61,0,0,0,14.4-3.37l.07.73H360V197Zm0,92.35-.85.08c-1.32,0-1.47-.41-1.63-.81-.58-1.41-1.27-4.15-1.27-9.23s.64-7.95,1.17-9.32c.12-.32.27-.72,1.77-.72.22,0,.49,0,.81,0Z" transform="translate(-45.65 -197)"/><rect x="314.35" y="32" width="49" height="100"/><rect x="313.35" width="51" height="37"/><path d="M453.91,338.31A194.35,194.35,0,0,1,432,337.12a106.72,106.72,0,0,1-15.37-2.55l-8.41-2.26,1.21-36.38,7.8,1.07c-.59-.51-1.15-1-1.68-1.58-5.13-5.27-7.73-13.3-7.73-23.86,0-13.77,4.21-23.71,12.54-29.54,7.76-5.45,18.64-8.21,32.32-8.21s25.89,1.25,35.84,3.7l8.88,2L495.48,277l-6.1-.69c.41.37.81.74,1.2,1.13,5.28,5.36,7.84,13.75,7.84,25.67s-3.93,21.12-11.69,26.95C479.31,335.6,468.57,338.31,453.91,338.31Z" transform="translate(-45.65 -197)"/></g><g id="Nyans-3" data-name="Nyans"><path class="cls-1" d="M113.2,295H119v8.61l-6.28.18c-6.53,0-11-2.11-13.1-6.32s-3.26-10.94-3.26-20.2.38-15.72,1.21-19.4c.59-2.6,1.53-4.36,2.84-5.25a18.7,18.7,0,0,1,5.24-2.31c2.19-.65,6.83-1,14-1s19.34.77,36.34,2.32V220.5l-6.72-1.6c-4.51-1-10.53-1.93-18.12-2.94a158.46,158.46,0,0,0-20.46-1.51q-30.44,0-43.24,13.7t-12.81,48q0,16.74,2.41,27.59a46.54,46.54,0,0,0,8.63,18.86,34.11,34.11,0,0,0,17.17,11.48q11,3.47,26.44,3.47c10.32,0,26.7-1.72,47.7-5.16V266H113Z" transform="translate(-45.65 -197)"/><path class="cls-1" d="M212,237.14q-23.85,0-35.68,11.12t-11.83,36.22q0,25.09,11.83,36.13t35.68,11q23.85,0,35.68-11t11.84-36.13q0-25.1-11.84-36.22T212,237.14Zm5.7,59.09q-1.6,3.19-5.7,3.2c-2.73,0-4.62-1.07-5.69-3.2s-1.6-6.08-1.6-11.84.53-9.7,1.6-11.83,3-3.21,5.69-3.21,4.63,1.07,5.7,3.21,1.6,6.08,1.6,11.83S218.73,294.09,217.67,296.23Z" transform="translate(-45.65 -197)"/><path class="cls-1" d="M319,238.21l-14.54-1.07q-39.33,0-39.39,47.34c0,15.42,2.57,27.14,7.8,35.15s14.33,12,27.39,12c5.93,0,12.15-2.24,18.67-6.39l.35,3.75H359V207H319Zm0,60.68-5.64.54c-3.21,0-5.4-1.31-6.47-3.92s-1.63-6.31-1.63-11.12.48-8.51,1.49-11.12,3.23-3.92,6.44-3.92a56.4,56.4,0,0,1,5.81.54Z" transform="translate(-45.65 -197)"/><rect class="cls-1" x="323.35" y="42" width="39" height="90"/><rect class="cls-1" x="322.35" y="10" width="41" height="27"/><path class="cls-1" d="M470.64,277.9q-14-1.51-14-2.59c0-.94,2.67-1.42,8-1.42s15.36.83,30.07,2.49l1.43-27.94-4.81-1.07q-14.42-3.56-34.7-3.56-19.05,0-29.45,7.3t-10.41,25.45q0,13.88,6.31,20.38t20.38,8.36q14.06,1.88,14.06,2.76,0,1.6-8.63,1.6t-30.7-3l-.89,26.87,4.63,1.24a103.7,103.7,0,0,0,14.59,2.41,188.86,188.86,0,0,0,21.35,1.15q20.11,0,29.81-7.29t9.7-23q0-15.66-6.4-22.16T470.64,277.9Z" transform="translate(-45.65 -197)"/></g><g id="Main_text-3" data-name="Main text"><path class="cls-2" d="M109.2,290H115v8.61l-6.28.18c-6.53,0-11-2.11-13.1-6.32s-3.26-10.94-3.26-20.2.38-15.72,1.21-19.4c.59-2.6,1.53-4.36,2.84-5.25a18.7,18.7,0,0,1,5.24-2.31c2.19-.65,6.83-1,14-1s19.34.77,36.34,2.32V215.5l-6.72-1.6c-4.51-1-10.53-1.93-18.12-2.94a158.46,158.46,0,0,0-20.46-1.51q-30.44,0-43.24,13.7t-12.81,48q0,16.74,2.41,27.59a46.54,46.54,0,0,0,8.63,18.86,34.11,34.11,0,0,0,17.17,11.48q11,3.47,26.44,3.47c10.32,0,26.7-1.72,47.7-5.16V261H109Z" transform="translate(-45.65 -197)"/><path class="cls-2" d="M208,232.14q-23.85,0-35.68,11.12t-11.83,36.22q0,25.09,11.83,36.13t35.68,11q23.85,0,35.68-11t11.84-36.13q0-25.1-11.84-36.22T208,232.14Zm5.7,59.09q-1.6,3.19-5.7,3.2c-2.73,0-4.62-1.07-5.69-3.2s-1.6-6.08-1.6-11.84.53-9.7,1.6-11.83,3-3.21,5.69-3.21,4.63,1.07,5.7,3.21,1.6,6.08,1.6,11.83S214.73,289.09,213.67,291.23Z" transform="translate(-45.65 -197)"/><path class="cls-2" d="M315,233.21l-14.54-1.07q-39.33,0-39.39,47.34c0,15.42,2.57,27.14,7.8,35.15s14.33,12,27.39,12c5.93,0,12.15-2.24,18.67-6.39l.35,3.75H355V202H315Zm0,60.68-5.64.54c-3.21,0-5.4-1.31-6.47-3.92s-1.63-6.31-1.63-11.12.48-8.51,1.49-11.12,3.23-3.92,6.44-3.92a56.4,56.4,0,0,1,5.81.54Z" transform="translate(-45.65 -197)"/><rect class="cls-2" x="319.35" y="37" width="39" height="90"/><rect class="cls-2" x="318.35" y="5" width="41" height="27"/><path class="cls-2" d="M466.64,272.9q-14-1.51-14-2.59c0-.94,2.67-1.42,8-1.42s15.36.83,30.07,2.49l1.43-27.94-4.81-1.07q-14.42-3.56-34.7-3.56-19.05,0-29.45,7.3t-10.41,25.45q0,13.88,6.31,20.38t20.38,8.36q14.06,1.88,14.06,2.76,0,1.6-8.63,1.6t-30.7-3l-.89,26.87,4.63,1.24a103.7,103.7,0,0,0,14.59,2.41,188.86,188.86,0,0,0,21.35,1.15q20.11,0,29.81-7.29t9.7-23q0-15.66-6.4-22.16T466.64,272.9Z" transform="translate(-45.65 -197)"/></g></g></svg>