<svg id="Text" xmlns="http://www.w3.org/2000/svg" viewBox="0 0 770.35 165.31"><defs><style>.cls-1{fill:#e86ed0;}.cls-2{fill:#edb5f5;}.cls-3{fill:#b1e8ed;}.cls-4{fill:#e6f8f9;}</style></defs><title>logo</title><g id="Godis"><g id="Shadow"><path d="M173,229l0.23,37.27c-3-.83-3.82-2.42-4.15-3.06-1.24-2.45-2.72-7.54-2.72-17.94,0-8.93.37-15.08,1.09-18.29a6.11,6.11,0,0,1,.84-2.27,14.25,14.25,0,0,1,3.78-1.61c0.78-.23,3.58-0.77,12.59-0.77,7,0,19.1.77,35.89,2.29l5.45,0.49V184.55L215.31,182c-4.64-1-10.86-2-18.5-3a163,163,0,0,0-21.11-1.56c-21.63,0-37.4,5.14-46.89,15.29s-14.16,27-14.16,51.46c0,11.46.85,21.1,2.52,28.66a51.84,51.84,0,0,0,9.57,20.85,39.18,39.18,0,0,0,19.61,13.18c7.75,2.46,17.15,3.7,27.95,3.7s27.65-1.81,48.51-5.23l4.19-.69V229H173Z" transform="translate(-105.65 -146)"/><path d="M316.08,212.62c-8.81-8.28-22-12.48-39.1-12.48s-30.29,4.2-39.11,12.48-13.41,21.77-13.41,39.86S229,284,237.88,292.26s22,12.38,39.09,12.38,30.28-4.16,39.09-12.38,13.42-21.69,13.42-39.78S325,221,316.08,212.62ZM278.19,262c-0.12.25-.22,0.44-1.22,0.44s-1.1-.19-1.22-0.44c-0.25-.5-1.07-2.68-1.07-9.6s0.82-9.09,1.07-9.6c0.12-.25.22-0.44,1.22-0.44s1.1,0.19,1.22.44c0.25,0.5,1.07,2.68,1.07,9.6S278.45,261.49,278.19,262Z" transform="translate(-105.65 -146)"/><path d="M379,170v30.83l-9.36-.83h-0.18c-36.69,0-44.39,28.53-44.39,52.41,0,16.6,2.82,29.06,8.61,37.95,6.18,9.48,16.8,14.28,31.58,14.28a34.63,34.63,0,0,0,14.4-3.37l0.07,0.73H429V170H379Zm0,92.35-0.85.08c-1.32,0-1.47-.41-1.63-0.81-0.58-1.4-1.26-4.15-1.26-9.23s0.63-8,1.16-9.32c0.12-.32.28-0.72,1.77-0.72l0.81,0v20Z" transform="translate(-105.65 -146)"/><rect x="323.35" y="56" width="49" height="100"/><rect x="322.35" y="24" width="51" height="37"/><path d="M522.91,311.31A194.5,194.5,0,0,1,501,310.12a107.51,107.51,0,0,1-15.38-2.56l-8.41-2.26,1.21-36.38,7.81,1.07q-0.89-.76-1.69-1.58c-5.13-5.27-7.73-13.3-7.73-23.86,0-13.77,4.22-23.71,12.54-29.54,7.77-5.44,18.64-8.2,32.32-8.2,13.83,0,25.89,1.24,35.84,3.69l8.87,2-1.91,37.47-6.1-.69q0.62,0.55,1.2,1.13c5.28,5.36,7.85,13.75,7.85,25.67s-3.93,21.12-11.69,27C548.31,308.6,537.57,311.31,522.91,311.31Z" transform="translate(-105.65 -146)"/></g><g id="Border"><path d="M164,205l0.23,37.27c-3-.83-3.82-2.42-4.15-3.06-1.24-2.45-2.72-7.54-2.72-17.94,0-8.93.37-15.08,1.09-18.29a6.11,6.11,0,0,1,.84-2.27,14.25,14.25,0,0,1,3.78-1.61c0.78-.23,3.58-0.77,12.59-0.77,7,0,19.1.77,35.89,2.29l5.45,0.49V160.55L206.31,158c-4.64-1-10.86-2-18.5-3a163,163,0,0,0-21.11-1.56c-21.63,0-37.4,5.14-46.89,15.29s-14.16,27-14.16,51.46c0,11.46.85,21.1,2.52,28.66a51.84,51.84,0,0,0,9.57,20.85,39.18,39.18,0,0,0,19.61,13.18c7.75,2.46,17.15,3.7,27.95,3.7s27.65-1.81,48.51-5.23l4.19-.69V205H164Z" transform="translate(-105.65 -146)"/><path d="M307.08,188.62c-8.81-8.28-22-12.48-39.1-12.48s-30.29,4.2-39.11,12.48-13.41,21.77-13.41,39.86S220,260,228.88,268.26s22,12.38,39.09,12.38,30.28-4.16,39.09-12.38,13.42-21.69,13.42-39.78S316,197,307.08,188.62ZM269.19,238c-0.12.25-.22,0.44-1.22,0.44s-1.1-.19-1.22-0.44c-0.25-.5-1.07-2.68-1.07-9.6s0.82-9.09,1.07-9.6c0.12-.25.22-0.44,1.22-0.44s1.1,0.19,1.22.44c0.25,0.5,1.07,2.68,1.07,9.6S269.45,237.49,269.19,238Z" transform="translate(-105.65 -146)"/><path d="M370,146v30.83l-9.36-.83h-0.18c-36.69,0-44.39,28.53-44.39,52.41,0,16.6,2.82,29.06,8.61,37.95,6.18,9.48,16.8,14.28,31.58,14.28a34.63,34.63,0,0,0,14.4-3.37l0.07,0.73H420V146H370Zm0,92.35-0.85.08c-1.32,0-1.47-.41-1.63-0.81-0.58-1.4-1.26-4.15-1.26-9.23s0.63-8,1.16-9.32c0.12-.32.28-0.72,1.77-0.72l0.81,0v20Z" transform="translate(-105.65 -146)"/><rect x="314.35" y="32" width="49" height="100"/><rect x="313.35" width="51" height="37"/><path d="M513.91,287.31A194.5,194.5,0,0,1,492,286.12a107.51,107.51,0,0,1-15.38-2.56l-8.41-2.26,1.21-36.38,7.81,1.07q-0.89-.76-1.69-1.58c-5.13-5.27-7.73-13.3-7.73-23.86,0-13.77,4.22-23.71,12.54-29.54,7.77-5.44,18.64-8.2,32.32-8.2,13.83,0,25.89,1.24,35.84,3.69l8.87,2-1.91,37.47-6.1-.69q0.62,0.55,1.2,1.13c5.28,5.36,7.85,13.75,7.85,25.67s-3.93,21.12-11.69,27C539.31,284.6,528.57,287.31,513.91,287.31Z" transform="translate(-105.65 -146)"/></g><g id="Nyans"><path class="cls-1" d="M173.2,244H179v8.61l-6.28.18c-6.53,0-11-2.1-13.11-6.32s-3.26-10.94-3.26-20.2,0.39-15.72,1.22-19.4c0.59-2.61,1.53-4.36,2.83-5.25a18.93,18.93,0,0,1,5.24-2.31c2.19-.65,6.83-1,14-1S199,199.1,216,200.65V169.5l-6.72-1.6c-4.51-.95-10.54-1.93-18.13-2.94a157.2,157.2,0,0,0-20.45-1.51q-30.43,0-43.24,13.7T114.65,225.2q0,16.73,2.4,27.58a46.67,46.67,0,0,0,8.63,18.86,34.13,34.13,0,0,0,17.17,11.48q10.94,3.47,26.44,3.47c10.32,0,26.7-1.72,47.7-5.16V215H173Z" transform="translate(-105.65 -146)"/><path class="cls-1" d="M272,186.14q-23.85,0-35.68,11.12t-11.83,36.22q0,25.09,11.83,36.13t35.68,11q23.85,0,35.68-11t11.83-36.13q0-25.09-11.83-36.22T272,186.14Zm5.69,59.08q-1.6,3.2-5.69,3.2t-5.69-3.2q-1.6-3.2-1.6-11.83t1.6-11.83q1.6-3.2,5.69-3.2t5.69,3.2q1.6,3.2,1.6,11.83T277.67,245.23Z" transform="translate(-105.65 -146)"/><path class="cls-1" d="M379,187.21l-14.54-1.07q-39.33,0-39.39,47.34,0,23.14,7.8,35.15t27.39,12c5.93,0,12.15-2.24,18.68-6.39l0.35,3.75H419V156H379v31.21Zm0,60.69-5.64.53c-3.2,0-5.4-1.3-6.47-3.92s-1.63-6.32-1.63-11.12,0.49-8.51,1.5-11.12,3.23-3.92,6.44-3.92a57,57,0,0,1,5.81.53v29Z" transform="translate(-105.65 -146)"/><rect class="cls-1" x="323.35" y="42" width="39" height="90"/><rect class="cls-1" x="322.35" y="10" width="41" height="27"/><path class="cls-1" d="M530.64,226.9q-14-1.51-14-2.58,0-1.42,8-1.42t30.08,2.49l1.42-27.94-4.81-1.07q-14.41-3.56-34.7-3.56-19,0-29.45,7.3t-10.41,25.45q0,13.88,6.32,20.38t20.38,8.36q14.06,1.87,14.06,2.76,0,1.6-8.63,1.6t-30.7-3l-0.89,26.87,4.63,1.25a104.34,104.34,0,0,0,14.59,2.4,188.55,188.55,0,0,0,21.36,1.16q20.11,0,29.81-7.3t9.7-23q0-15.66-6.41-22.16T530.64,226.9Z" transform="translate(-105.65 -146)"/></g><g id="Main_text" data-name="Main text"><path class="cls-2" d="M169.2,239H175v8.61l-6.28.18c-6.53,0-11-2.1-13.11-6.32s-3.26-10.94-3.26-20.2,0.39-15.72,1.22-19.4c0.59-2.61,1.53-4.36,2.83-5.25a18.93,18.93,0,0,1,5.24-2.31c2.19-.65,6.83-1,14-1S195,194.1,212,195.65V164.5l-6.72-1.6c-4.51-.95-10.54-1.93-18.13-2.94a157.2,157.2,0,0,0-20.45-1.51q-30.43,0-43.24,13.7T110.65,220.2q0,16.73,2.4,27.58a46.67,46.67,0,0,0,8.63,18.86,34.13,34.13,0,0,0,17.17,11.48q10.94,3.47,26.44,3.47c10.32,0,26.7-1.72,47.7-5.16V210H169Z" transform="translate(-105.65 -146)"/><path class="cls-2" d="M268,181.14q-23.85,0-35.68,11.12t-11.83,36.22q0,25.09,11.83,36.13t35.68,11q23.85,0,35.68-11t11.83-36.13q0-25.09-11.83-36.22T268,181.14Zm5.69,59.08q-1.6,3.2-5.69,3.2t-5.69-3.2q-1.6-3.2-1.6-11.83t1.6-11.83q1.6-3.2,5.69-3.2t5.69,3.2q1.6,3.2,1.6,11.83T273.67,240.23Z" transform="translate(-105.65 -146)"/><path class="cls-2" d="M375,182.21l-14.54-1.07q-39.33,0-39.39,47.34,0,23.14,7.8,35.15t27.39,12c5.93,0,12.15-2.24,18.68-6.39l0.35,3.75H415V151H375v31.21Zm0,60.69-5.64.53c-3.2,0-5.4-1.3-6.47-3.92s-1.63-6.32-1.63-11.12,0.49-8.51,1.5-11.12,3.23-3.92,6.44-3.92a57,57,0,0,1,5.81.53v29Z" transform="translate(-105.65 -146)"/><rect class="cls-2" x="319.35" y="37" width="39" height="90"/><rect class="cls-2" x="318.35" y="5" width="41" height="27"/><path class="cls-2" d="M526.64,221.9q-14-1.51-14-2.58,0-1.42,8-1.42t30.08,2.49l1.42-27.94-4.81-1.07q-14.41-3.56-34.7-3.56-19,0-29.45,7.3t-10.41,25.45q0,13.88,6.32,20.38t20.38,8.36q14.06,1.87,14.06,2.76,0,1.6-8.63,1.6t-30.7-3l-0.89,26.87,4.63,1.25a104.34,104.34,0,0,0,14.59,2.4,188.55,188.55,0,0,0,21.36,1.16q20.11,0,29.81-7.3t9.7-23q0-15.66-6.41-22.16T526.64,221.9Z" transform="translate(-105.65 -146)"/></g></g><g id="Bilen"><g id="Shadow-2" data-name="Shadow"><path d="M615,310.7c-5.83,0-14.89-.74-27.7-2.26L577,307.07V209h39v23.08a50.3,50.3,0,0,1,8.79-.94c14.15,0,31,6.71,31,38.67,0,15-3,25.32-9.08,31.54S630.16,310.7,615,310.7Zm1-37a29.21,29.21,0,0,0,.16-3.25,36.27,36.27,0,0,0-.16-3.72v7Z" transform="translate(-105.65 -146)"/><rect x="546.35" y="87" width="39" height="76"/><rect x="546.35" y="63" width="39" height="30"/><rect x="582.35" y="63" width="40" height="100"/><path d="M760.86,310.7c-12.84,0-22.42-3.18-28.48-9.45s-9.07-16-9.07-29.15,3.21-23.22,9.55-30.21,16.37-10.75,29.45-10.75c12.85,0,22.8,2.93,29.39,8.71,6.78,5.95,10.31,15,10.31,26.93V267l-2,18h-0.11l0.72,20.9-4.08.89A168,168,0,0,1,760.86,310.7Z" transform="translate(-105.65 -146)"/><path d="M797,309V233h39.94a25.7,25.7,0,0,1,9.15-1.86c11,0,18.69,3.17,23.49,9.7,4.38,6,6.42,15.5,6.42,30V309H797Z" transform="translate(-105.65 -146)"/></g><g id="Border-2" data-name="Border"><path d="M606,286.7c-5.83,0-14.89-.74-27.7-2.26L568,283.07V185h39v23.08a50.3,50.3,0,0,1,8.79-.94c14.15,0,31,6.71,31,38.67,0,15-3,25.32-9.08,31.54S621.16,286.7,606,286.7Zm1-37a29.21,29.21,0,0,0,.16-3.25,36.27,36.27,0,0,0-.16-3.72v7Z" transform="translate(-105.65 -146)"/><rect x="537.35" y="63" width="39" height="76"/><rect x="537.35" y="39" width="39" height="30"/><rect x="573.35" y="39" width="40" height="100"/><path d="M751.86,286.7c-12.84,0-22.42-3.18-28.48-9.45s-9.07-16-9.07-29.15,3.21-23.22,9.55-30.21,16.37-10.75,29.45-10.75c12.85,0,22.8,2.93,29.39,8.71,6.78,5.95,10.31,15,10.31,26.93V243l-2,18h-0.11l0.72,20.9-4.08.89A168,168,0,0,1,751.86,286.7Z" transform="translate(-105.65 -146)"/><path d="M788,285V209h39.94a25.7,25.7,0,0,1,9.15-1.86c11,0,18.69,3.17,23.49,9.7,4.38,6,6.42,15.5,6.42,30V285H788Z" transform="translate(-105.65 -146)"/></g><g id="Nyans-2" data-name="Nyans"><path class="cls-3" d="M619.79,217.14c-3.32,0-7.79.7-13.79,2.1V195H577v88.69l5.89,0.79q18.73,2.23,27.11,2.23,20.44,0,28.16-7.86c5.15-5.24,7.65-14.58,7.65-28C645.81,228.37,637.08,217.14,619.79,217.14ZM610.36,263a19.76,19.76,0,0,1-4.36-.39V241.77l4.36-.92a4.89,4.89,0,0,1,4.54,2.23c0.87,1.49,1.27,4.28,1.27,8.38C616.16,259.15,614.2,263,610.36,263Z" transform="translate(-105.65 -146)"/><rect class="cls-3" x="546.35" y="73" width="29" height="66"/><rect class="cls-3" x="546.35" y="49" width="29" height="20"/><rect class="cls-3" x="582.35" y="49" width="30" height="90"/><path class="cls-3" d="M783.31,224.61q-8.52-7.47-26-7.47t-25.74,9.1q-8.25,9.11-8.25,26.85T731,278.78q7.66,7.93,24.89,7.93a162.29,162.29,0,0,0,34.65-3.8l-0.66-19-5.11.39c-8.73.52-17.47,1-26.2,1-3.84,0-5.81-1.34-5.9-4.34h37.86l1.31-13.22C791.82,237.48,789,229.59,783.31,224.61ZM752.52,245c0.09-3,.48-4.56,1.18-5.61a4.28,4.28,0,0,1,3.8-1.69,4.5,4.5,0,0,1,3.86,1.75c0.74,1,1.11,2.55,1.11,5.55h-10Z" transform="translate(-105.65 -146)"/><path class="cls-3" d="M860.55,224.81c-3.76-5.11-10-7.66-19.46-7.66-4.11,0-9.09,1.7-14.09,5.11V219H797v66h30V243.34l5.46-.92c3.14,0,4.54,3.8,4.54,11.4V285h29V251.86C866,238.93,864.3,229.91,860.55,224.81Z" transform="translate(-105.65 -146)"/></g><g id="Main_text-2" data-name="Main text"><path class="cls-4" d="M615.79,212.14c-3.32,0-7.79.7-13.79,2.1V190H573v88.69l5.89,0.79q18.73,2.23,27.11,2.23,20.44,0,28.16-7.86c5.15-5.24,7.65-14.58,7.65-28C641.81,223.37,633.08,212.14,615.79,212.14ZM606.36,258a19.76,19.76,0,0,1-4.36-.39V236.77l4.36-.92a4.89,4.89,0,0,1,4.54,2.23c0.87,1.49,1.27,4.28,1.27,8.38C612.16,254.15,610.2,258,606.36,258Z" transform="translate(-105.65 -146)"/><rect class="cls-4" x="542.35" y="68" width="29" height="66"/><rect class="cls-4" x="542.35" y="44" width="29" height="20"/><rect class="cls-4" x="578.35" y="44" width="30" height="90"/><path class="cls-4" d="M779.31,219.61q-8.52-7.47-26-7.47t-25.74,9.1q-8.25,9.11-8.25,26.85T727,273.78q7.66,7.93,24.89,7.93a162.29,162.29,0,0,0,34.65-3.8l-0.66-19-5.11.39c-8.73.52-17.47,1-26.2,1-3.84,0-5.81-1.34-5.9-4.34h37.86l1.31-13.22C787.82,232.48,785,224.59,779.31,219.61ZM748.52,240c0.09-3,.48-4.56,1.18-5.61a4.28,4.28,0,0,1,3.8-1.69,4.5,4.5,0,0,1,3.86,1.75c0.74,1,1.11,2.55,1.11,5.55h-10Z" transform="translate(-105.65 -146)"/><path class="cls-4" d="M856.55,219.81c-3.76-5.11-10-7.66-19.46-7.66-4.11,0-9.09,1.7-14.09,5.11V214H793v66h30V238.34l5.46-.92c3.14,0,4.54,3.8,4.54,11.4V280h29V246.86C862,233.93,860.3,224.91,856.55,219.81Z" transform="translate(-105.65 -146)"/></g></g></svg>