<svg id="Lager_1" data-name="Lager 1" xmlns="http://www.w3.org/2000/svg" xmlns:xlink="http://www.w3.org/1999/xlink" viewBox="0 0 720.02 676.08"><defs><style>.cls-1{filter:url(#a);}.cls-2{fill:#dcd3ba;}.cls-3{fill:#89d375;opacity:0.49;}.cls-3,.cls-6{isolation:isolate;}.cls-4{fill:#f7fd9f;}.cls-5{fill:#fff;}.cls-6{fill:none;stroke-width:10px;opacity:0.8;}.cls-6,.cls-7{stroke:#000;}.cls-7{fill:#e86ed0;stroke-width:10.4px;}</style><filter id="a" x="-25.69" y="-0.11" width="1.08" height="1.24" name="a"><feGaussianBlur stdDeviation="11.87"/></filter></defs><title>map</title><g class="cls-1"><path d="M101.14,449.28c-20.79,77.13-51.8,144.5-72.65,221.61,2.1,4.67,8.87,1.05,12.72,2.19q349.87-.12,699.78-0.12c4.3-2.59-1.12-8.66-1-12.49-20.24-74.15-48.45-142.54-68.7-216.68-196,0-373.71,4-569.73,4l-0.27,1Z" transform="translate(-25.65 0.01)"/></g><path class="cls-2" d="M677.73,440l62.93,230.64a0.46,0.46,0,0,1-.53.44H31.19a0.46,0.46,0,0,1-.53-0.44L92.73,440h585Z" transform="translate(-25.65 0.01)"/><path class="cls-3" d="M658,668.86c0-1.11-3.32-4.22-5.07-4.73-2.32-.69-9.22-4.82-9.22-5.52a0.82,0.82,0,0,0-.89-0.59c-2.66-.09-10.24-9.28-11.92-14.45a6.31,6.31,0,0,0-3.65-4.11,13.1,13.1,0,0,0-3.88-1.41,18.63,18.63,0,0,1-4.85-2,55,55,0,0,0-8-3.29c-6.71-2-10-3.91-14.7-8.25-3.34-3.1-4.65-4.93-5.69-7.94a28.3,28.3,0,0,1-1.37-5,11.52,11.52,0,0,0-2.08-4,21.64,21.64,0,0,1-2.55-4.39,2.14,2.14,0,0,0-1.16-1.56c-0.37,0-.67-0.63-0.67-1.4,0-1.9-6.76-8.34-10.71-10.21a12.43,12.43,0,0,1-3.79-2.45c-0.31-.51-1.76-0.93-3.21-0.93-4.63,0-20.86-4.91-20.86-6.31a11,11,0,0,0-2.13-3A14.85,14.85,0,0,1,539,573.5a46.46,46.46,0,0,0-3.23-6c-2.68-4.38-2.77-4.72-2.78-11.11,0-6.09-.73-9.77-2.5-12.79-0.39-.66-3.27-2.44-6.41-4s-6.62-3.37-7.73-4.1c-1.69-1.12-4.09-1.42-14.64-1.85-13.36-.55-19.64-1.85-23.82-4.94a8.29,8.29,0,0,0-2.56-1.45c-0.33,0-1-1.12-1.5-2.5s-1.37-2.5-1.93-2.5a0.91,0.91,0,0,1-1-.7c0-.92-7.8-8.59-8.74-8.59-0.62,0-8.47-3.76-13-6.24a28.52,28.52,0,0,0-5.71-1.6c-4.77-.92-10.32-3.37-10.87-4.8a1.44,1.44,0,0,0-1.17-.93c-1.4,0-4.5-4.52-5-7.33-0.28-1.48-.53-7.88-0.56-14.22-0.05-11.37-.08-11.58-2.06-14.69a46.26,46.26,0,0,0-5.09-6.29c-1.7-1.72-4.62-4.71-6.48-6.64s-4.83-4.83-6.59-6.45L402.73,440h275l31.09,115.19c16.88,62.53,29.84,114,29.86,114.11s-18.12.18-40.32,0.18S658,669.2,658,668.86h0Z" transform="translate(-25.65 0.01)"/><path class="cls-4" d="M520.73,440h45l9.93,231.08h-65Z" transform="translate(-25.65 0.01)"/><path class="cls-5" d="M712.73,565l10,40h-590l10-35Z" transform="translate(-25.65 0.01)"/><path class="cls-5" d="M152.73,440h40L156.66,605.11h-50Z" transform="translate(-25.65 0.01)"/><path class="cls-6" d="M677.73,440l62.93,230.64a0.46,0.46,0,0,1-.53.44H31.19a0.46,0.46,0,0,1-.53-0.44L92.73,440h585Z" transform="translate(-25.65 0.01)"/><path class="cls-7" d="M383.36,5.19c-99.48,0-179.81,80.41-179.81,179.59a179,179,0,0,0,21.94,86.09L383.37,535.18,541.25,270.87a179.05,179.05,0,0,0,21.94-86.09c0-99.18-80.33-179.59-179.81-179.59h0Zm-2,104.37c0.67,0,1.33,0,2,0a76.82,76.82,0,1,1-2,0h0Z" transform="translate(-25.65 0.01)"/></svg>